<?xml version="1.0" standalone="no"?>
<!DOCTYPE svg PUBLIC "-//W3C//DTD SVG 20010904//EN"
 "http://www.w3.org/TR/2001/REC-SVG-20010904/DTD/svg10.dtd">
<svg version="1.0" xmlns="http://www.w3.org/2000/svg"
 width="512.000000pt" height="512.000000pt" viewBox="0 0 512.000000 512.000000"
 preserveAspectRatio="xMidYMid meet">
<metadata>
Created by potrace 1.11, written by Peter Selinger 2001-2013
</metadata>
<g transform="translate(0.000000,512.000000) scale(0.100000,-0.100000)"
fill="#000000" stroke="none">
<path d="M3520 4004 c-52 -12 -108 -26 -125 -31 -48 -16 -155 -72 -220 -116
-59 -40 -215 -190 -215 -207 0 -5 -6 -15 -14 -22 -47 -47 -137 -256 -151 -350
-7 -46 -9 -48 -39 -48 -17 0 -168 -2 -336 -4 -337 -3 -392 -11 -518 -75 -142
-72 -202 -127 -372 -346 -68 -88 -149 -189 -179 -225 l-55 -65 -166 -1 c-291
-1 -446 -30 -613 -116 -80 -42 -177 -127 -177 -156 0 -36 12 -59 38 -73 22
-13 77 -15 310 -15 155 1 282 -3 282 -8 0 -24 -466 -487 -621 -616 -30 -25
-64 -55 -76 -66 -12 -12 -36 -32 -55 -45 -18 -13 -35 -26 -38 -29 -3 -3 -39
-32 -81 -63 -43 -32 -82 -69 -88 -85 -24 -56 7 -125 62 -140 21 -6 1013 -10
2493 -10 2761 0 2515 -7 2543 74 22 63 6 90 -107 176 -107 81 -275 222 -367
307 -103 97 -387 383 -477 481 l-86 94 71 39 c141 76 284 205 352 318 99 164
145 314 149 489 7 253 -88 490 -269 676 -222 228 -552 327 -855 258z"/>
</g>
</svg>
